<?xml version="1.0" standalone="no"?>
<!DOCTYPE svg PUBLIC "-//W3C//DTD SVG 20010904//EN"
 "http://www.w3.org/TR/2001/REC-SVG-20010904/DTD/svg10.dtd">
<svg version="1.0" xmlns="http://www.w3.org/2000/svg"
 width="1000.000000pt" height="1000.000000pt" viewBox="0 0 1000.000000 1000.000000"
 preserveAspectRatio="xMidYMid meet">
<metadata>
Created by potrace 1.11, written by Peter Selinger 2001-2013
</metadata>
<g transform="translate(0.000000,1000.000000) scale(0.100000,-0.100000)"
fill="#000000" stroke="none">
<path d="M0 5000 l0 -5000 5000 0 5000 0 0 5000 0 5000 -5000 0 -5000 0 0
-5000z m8576 2983 c51 -33 76 -62 110 -123 19 -34 19 -92 19 -2315 l0 -2280
-23 -47 c-25 -50 -100 -110 -162 -128 -19 -6 -108 -14 -197 -17 l-162 -6 -6
-76 c-25 -286 -125 -500 -324 -698 -238 -236 -547 -347 -876 -314 -272 27
-479 125 -670 316 -194 193 -301 423 -321 685 l-7 90 -827 0 -827 0 -6 -102
c-11 -175 -67 -343 -168 -498 -59 -90 -237 -266 -333 -328 -197 -128 -449
-187 -694 -163 -267 27 -452 110 -645 291 -204 191 -326 442 -344 706 l-6 92
-301 4 c-333 5 -347 7 -434 72 -56 40 -78 84 -88 169 -17 142 91 284 230 303
l47 7 -1 891 c-1 616 2 919 10 980 13 103 51 209 103 287 20 30 253 271 519
535 l483 482 95 45 c158 75 173 77 608 77 l382 0 0 439 c0 486 0 488 65 567
19 23 58 54 87 68 l52 26 2281 -2 2280 -3 51 -32z"/>
<path d="M3035 6369 c-20 -6 -175 -153 -477 -456 -432 -433 -447 -449 -453
-493 -4 -25 -5 -67 -3 -95 l3 -50 828 -3 827 -2 -2 552 -3 553 -345 2 c-190 1
-358 -3 -375 -8z"/>
<path d="M3040 3597 c-92 -31 -154 -71 -224 -142 -182 -184 -213 -467 -76
-673 162 -243 446 -327 699 -207 94 45 213 161 260 252 153 304 -6 669 -338
773 -90 28 -233 27 -321 -3z"/>
<path d="M6926 3609 c-178 -42 -364 -230 -405 -409 -16 -68 -13 -209 5 -271
41 -140 162 -288 286 -348 180 -88 380 -78 537 25 106 71 192 178 232 289 26
75 36 211 20 288 -40 191 -214 372 -406 423 -56 15 -210 17 -269 3z"/>
</g>
</svg>
